{"title":"Hansel And Gretel 2013 DVDRip XviD-RedBlade","uid":8054614,"size":742699082,"categoryP":"video","categoryS":"movies","magnet":"?xt=urn:btih:d2e88cac6198a978c47ee4f9e851750553fb0e02&amp;dn=Hansel+And+Gretel+2013+DVDRip+XviD-RedBlade&amp;tr=udp%3A%2F%2Ftracker.openbittorrent.com%3A80&amp;tr=udp%3A%2F%2Fopen.demonii.com%3A1337&amp;tr=udp%3A%2F%2Ftracker.coppersurfer.tk%3A6969&amp;tr=udp%3A%2F%2Fexodus.desync.com%3A6969","seeders":2,"leechers":0,"uploader":"xxxlavalxxx","files":3,"time":1358931637,"description":" &lt;a href=&quot;\nhttp://www.shotpix.com/images/10501097697041025399.jpg&quot; rel=&quot;nofollow&quot; target=&quot;_NEW&quot;&gt;\nhttp://www.shotpix.com/images/10501097697041025399.jpg&lt;/a&gt;\n\n\n &lt;a href=&quot;\nhttp://www.imdb.com/title/tt2415464/&quot; rel=&quot;nofollow&quot; target=&quot;_NEW&quot;&gt;\nhttp://www.imdb.com/title/tt2415464/&lt;/a&gt;\n\n\nDirector: \nAnthony C. Ferrante\n\n Writer: \nJose Prendes\n \nStars:\n Dee Wallace, Brent Lydic and Stephanie Greco\n\nGenres:\n Horror \n\nCountry:\nUSA \n\nLanguage:\nEnglish \n\n\nFormat                                   : AVI\nFormat/Info                              : Audio Video Interleave\nFile size                                : 702 MiB\nDuration                                 : 1h 29mn\nOverall bit rate mode                    : Variable\nOverall bit rate                         : 1 092 Kbps\nWriting application                      : VirtualDubMod 1.5.10.2 (build 2540/release)\nWriting library                          : VirtualDubMod build 2540/release\n\nVideo\nID                                       : 0\nFormat                                   : MPEG-4 Visual\nFormat profile                           : Advanced Simple@L5\nFormat settings, BVOP                    : 2\nFormat settings, QPel                    : No\nFormat settings, GMC                     : No warppoints\nFormat settings, Matrix                  : Default (H.263)\nMuxing mode                              : Packed bitstream\nCodec ID                                 : XVID\nCodec ID/Hint                            : XviD\nDuration                                 : 1h 29mn\nBit rate                                 : 956 Kbps\nWidth                                    : 640 pixels\nHeight                                   : 352 pixels\nDisplay aspect ratio                     : 16:9\nFrame rate                               : 23.976 fps\nColor space                              : YUV\nChroma subsampling                       : 4:2:0\nBit depth                                : 8 bits\nScan type                                : Progressive\nCompression mode                         : Lossy\nBits/(Pixel*Frame)                       : 0.177\nStream size                              : 615 MiB (88%)\nWriting library                          : XviD 64\n\nAudio\nID                                       : 1\nFormat                                   : MPEG Audio\nFormat version                           : Version 1\nFormat profile                           : Layer 3\nMode                                     : Joint stereo\nMode extension                           : MS Stereo\nCodec ID                                 : 55\nCodec ID/Hint                            : MP3\nDuration                                 : 1h 29mn\nBit rate mode                            : Variable\nBit rate                                 : 128 Kbps\nChannel(s)                               : 2 channels\nSampling rate                            : 48.0 KHz\nCompression mode                         : Lossy\nStream size                              : 78.7 MiB (11%)\nAlignment                                : Aligned on interleaves\nInterleave, duration                     : 24 ms (0.58 video frame)\nInterleave, preload duration             : 150 ms\nWriting library                          : LAME3.98r\nEncoding settings                        : -m j -V 4 -q 2 -lowpass 17 --abr 128\n\n\n\n\n &lt;a href=&quot;\nhttp://www.shotpix.com/images/05944084717763864177.png&quot; rel=&quot;nofollow&quot; target=&quot;_NEW&quot;&gt;\nhttp://www.shotpix.com/images/05944084717763864177.png&lt;/a&gt;\n &lt;a href=&quot;\nhttp://www.shotpix.com/images/72399429810062798347.png&quot; rel=&quot;nofollow&quot; target=&quot;_NEW&quot;&gt;\nhttp://www.shotpix.com/images/72399429810062798347.png&lt;/a&gt;\n &lt;a href=&quot;\nhttp://www.shotpix.com/images/20626620901141109162.png&quot; rel=&quot;nofollow&quot; target=&quot;_NEW&quot;&gt;\nhttp://www.shotpix.com/images/20626620901141109162.png&lt;/a&gt;\n &lt;a href=&quot;\nhttp://www.shotpix.com/images/32901325990326611184.png&quot; rel=&quot;nofollow&quot; target=&quot;_NEW&quot;&gt;\nhttp://www.shotpix.com/images/32901325990326611184.png&lt;/a&gt;","torrent":{"xt":"urn:btih:d2e88cac6198a978c47ee4f9e851750553fb0e02","amp;dn":"Hansel+And+Gretel+2013+DVDRip+XviD-RedBlade","amp;tr":["udp%3A%2F%2Ftracker.openbittorrent.com%3A80","udp%3A%2F%2Fopen.demonii.com%3A1337","udp%3A%2F%2Ftracker.coppersurfer.tk%3A6969","udp%3A%2F%2Fexodus.desync.com%3A6969"],"infoHash":"d2e88cac6198a978c47ee4f9e851750553fb0e02","infoHashBuffer":{"type":"Buffer","data":[210,232,140,172,97,152,169,120,196,126,228,249,232,81,117,5,83,251,14,2]},"announce":[],"urlList":[]}}